<svg width="108" height="56" viewBox="0 0 108 56" fill="none" xmlns="http://www.w3.org/2000/svg">
<g clip-path="url(#clip0_423_2926)">
<path d="M9.31008 55.8598C6.73961 55.9719 4.24412 54.9565 2.43549 53.0598C0.764835 51.0415 -0.101987 48.4377 0.00899044 45.781V45.0802C-0.0779917 42.383 0.782832 39.745 2.43549 37.6613C4.04316 35.7023 6.43067 34.6215 8.90517 34.7212C11.2267 34.5748 13.4942 35.4967 15.1049 37.2409C16.5926 39.1844 17.3604 41.62 17.2615 44.0991V46.6188H4.59205V46.759C4.55906 48.2353 5.03896 49.6773 5.93877 50.8173C6.90458 51.9012 8.29629 52.468 9.712 52.3559C10.8038 52.3715 11.8926 52.2313 12.9483 51.9354C13.8601 51.6582 14.727 51.2346 15.5098 50.6771L16.9915 53.6173C16.0827 54.3959 15.0269 54.969 13.8901 55.296C12.3845 55.6449 10.8488 55.8317 9.30708 55.8567L9.31008 55.8598ZM8.90517 38.3621C7.82539 38.3029 6.7786 38.767 6.07375 39.6235C5.3089 40.5766 4.838 41.7476 4.72702 42.9841V43.1243H12.6814V42.7038C12.7414 41.5483 12.4084 40.4084 11.7366 39.4834C11.0287 38.6455 9.96995 38.2282 8.90517 38.3621Z" fill="white"/>
<path d="M25.6237 51.7983H36.4095V55.4392H19.9639V52.4991L30.2098 38.7794H20.2338V35.1384H36.0046V38.0786L25.6237 51.7983Z" fill="white"/>
<path d="M45.0357 55.4393H40.4526V35.0015H45.0357V55.4393Z" fill="white"/>
<path d="M61.4814 49.8392C61.4784 49.1073 61.1245 48.4252 60.5366 48.0203C59.4838 47.4161 58.3471 46.9894 57.1653 46.7589C55.2337 46.4256 53.3921 45.6626 51.7724 44.5195C50.5607 43.6132 49.8558 42.1493 49.8858 40.6014C49.8648 38.8728 50.6716 37.2439 52.0424 36.2628C53.662 34.9796 55.6686 34.3349 57.7052 34.4439C59.7838 34.3162 61.8383 34.9609 63.503 36.2628C64.8587 37.3217 65.6566 38.9818 65.6596 40.7415V40.8817H61.3464C61.3794 40.0657 61.0285 39.2808 60.4016 38.7825C59.6878 38.1502 58.779 37.8045 57.8402 37.8014C56.9404 37.7796 56.0525 38.0225 55.2787 38.5022C54.7718 38.9631 54.4779 39.6234 54.4689 40.3211C54.4509 40.9845 54.7538 41.6167 55.2787 41.9998C56.3075 42.629 57.4592 43.0121 58.65 43.1211C60.6566 43.4855 62.5792 44.2486 64.3128 45.3605C65.5246 46.2668 66.2294 47.7306 66.1995 49.2786C66.1995 51.0757 65.3416 52.7544 63.9079 53.7573C62.1623 55.2337 59.9547 55.9811 57.7082 55.8566C55.4617 55.9843 53.2511 55.2337 51.5085 53.7573C50.0898 52.6268 49.2859 50.8546 49.3519 48.9983V48.8581H53.665C53.668 49.889 54.1119 50.8639 54.8768 51.518C55.7586 52.1066 56.7934 52.3994 57.8432 52.3589C58.788 52.3963 59.7238 52.1533 60.5396 51.6581C61.1275 51.2532 61.4814 50.5711 61.4844 49.8392H61.4814Z" fill="white"/>
<path d="M42.7954 31.1551C44.061 31.1551 45.087 30.0897 45.087 28.7755C45.087 27.4613 44.061 26.396 42.7954 26.396C41.5299 26.396 40.5039 27.4613 40.5039 28.7755C40.5039 30.0897 41.5299 31.1551 42.7954 31.1551Z" fill="white"/>
<path d="M91.9223 23.4403C89.0849 7.83002 74.6009 -2.44184 59.565 0.504548C51.0737 2.16773 43.8182 7.84559 39.94 15.8656H39.6701C29.0043 15.8656 21.4428 22.182 20.363 32.0053V32.5659H25.36C26.3048 23.8638 33.4614 20.7773 39.805 20.7773C40.3029 20.7493 40.8038 20.796 41.2867 20.9174L43.1734 21.0576L43.8482 19.2387C48.6772 7.2476 61.9525 1.59153 73.5001 6.60599C81.2235 9.96039 86.5385 17.4603 87.3213 26.1157L87.4563 28.7755L90.1527 28.355C90.6866 28.2492 91.2265 28.2024 91.7694 28.2149C97.8161 28.0592 102.837 33.0207 102.987 39.2997C103.137 45.5786 98.359 50.7924 92.3123 50.9482C92.1323 50.9513 91.9493 50.9513 91.7694 50.9482H73.5571V56.0031H91.7814C100.555 56.109 107.747 48.8116 107.849 39.7014C107.849 39.6609 107.849 39.6236 107.849 39.5831C107.804 30.6193 100.768 23.3935 92.1383 23.4403C92.0633 23.4403 91.9913 23.4403 91.9164 23.4403H91.9223Z" fill="white"/>
</g>
<defs>
<clipPath id="clip0_423_2926">
<rect width="107.852" height="56" fill="white"/>
</clipPath>
</defs>
</svg>
